<?xml version="1.0" encoding="utf-8"?><!-- Uploaded to: SVG Repo, www.svgrepo.com, Generator: SVG Repo Mixer Tools -->
<svg width="800px" height="800px" viewBox="0 0 48 48" fill="none" xmlns="http://www.w3.org/2000/svg">
<circle cx="24" cy="24" r="20" fill="#1769FF"/>
<path d="M18.9811 16C19.6726 16 20.3114 16.0527 20.8976 16.2107C21.4837 16.3161 21.9645 16.5335 22.3926 16.7969C22.8207 17.0603 23.1368 17.4357 23.3541 17.9165C23.5649 18.3973 23.6768 18.9834 23.6768 19.6223C23.6768 20.3665 23.5188 21.0053 23.1434 21.4861C22.8207 21.9668 22.2938 22.3949 21.6484 22.7111C22.5572 22.9745 23.2487 23.4553 23.6702 24.0941C24.0917 24.7329 24.3618 25.5298 24.3618 26.4387C24.3618 27.1829 24.2037 27.8217 23.9337 28.3552C23.6702 28.8886 23.2422 29.3694 22.7614 29.6855C22.2806 30.0083 21.6945 30.2717 21.0556 30.4297C20.4168 30.5878 19.778 30.6932 19.1391 30.6932L12 30.7064V16H18.9811ZM18.553 21.9668C19.1391 21.9668 19.6199 21.8088 19.9887 21.5388C20.3575 21.2687 20.5222 20.7945 20.5222 20.2084C20.5222 19.8857 20.4695 19.5696 20.3641 19.3588C20.2587 19.1481 20.1007 18.9834 19.8833 18.8254C19.6726 18.72 19.4553 18.6146 19.1918 18.5619C18.9284 18.5092 18.6584 18.5092 18.3422 18.5092H15.2534V21.9734C15.2534 21.9668 18.553 21.9668 18.553 21.9668ZM18.7111 28.2564C19.0338 28.2564 19.3499 28.2037 19.6199 28.151C19.8833 28.0983 20.1534 27.993 20.3641 27.8283C20.5749 27.6637 20.7395 27.5056 20.8976 27.2422C21.003 26.9787 21.1083 26.656 21.1083 26.2806C21.1083 25.5364 20.8976 25.003 20.4695 24.6276C20.0414 24.3048 19.4553 24.1468 18.7637 24.1468H15.2534V28.2498H18.7111V28.2564Z" fill="white"/>
<path d="M28.998 28.2036C29.4261 28.6317 30.0649 28.8425 30.9145 28.8425C31.5007 28.8425 32.0341 28.6844 32.4622 28.4144C32.8903 28.0917 33.1537 27.7756 33.2591 27.4528H35.8671C35.4391 28.7305 34.8002 29.6394 33.9506 30.2255C33.1011 30.759 32.0868 31.0751 30.8618 31.0751C30.0123 31.0751 29.2615 30.917 28.5699 30.647C27.8784 30.3836 27.345 30.0082 26.8642 29.4747C26.3834 28.9939 26.0146 28.4078 25.7973 27.7163C25.5338 27.0248 25.4219 26.2805 25.4219 25.4244C25.4219 24.6275 25.5272 23.8767 25.7973 23.1852C26.0673 22.4936 26.4361 21.9075 26.9169 21.374C27.3977 20.8933 27.9838 20.4652 28.6226 20.2017C29.3142 19.9383 30.0057 19.7737 30.8618 19.7737C31.7707 19.7737 32.5676 19.9317 33.2591 20.3071C33.9506 20.6825 34.4841 21.104 34.9122 21.7428C35.3403 22.329 35.6564 23.0205 35.8737 23.7647C35.9791 24.5089 36.0318 25.2597 35.9791 26.1093H28.2538C28.2538 26.9787 28.5699 27.7756 28.998 28.2036ZM32.3568 22.6056C31.9815 22.2302 31.3953 22.0195 30.7038 22.0195C30.223 22.0195 29.8542 22.1248 29.5315 22.2829C29.2088 22.441 28.998 22.6583 28.7873 22.869C28.5765 23.0798 28.4646 23.3498 28.4119 23.6133C28.3592 23.8767 28.3065 24.094 28.3065 24.3048H33.1011C32.9957 23.5145 32.7257 22.981 32.3568 22.6056ZM27.6677 17.0142H33.6345V18.4499H27.6677V17.0142Z" fill="white"/>
</svg>