<?xml version="1.0" ?>
<!-- Uploaded to: SVG Repo, www.svgrepo.com, Generator: SVG Repo Mixer Tools -->
<svg width="800px" height="800px" viewBox="0 0 100 100" version="1.1" xml:space="preserve" xmlns="http://www.w3.org/2000/svg" xmlns:xlink="http://www.w3.org/1999/xlink">
<style type="text/css">
	.st0{fill:#FFFFFF;}
	.st1{fill:#F5BB41;}
	.st2{fill:#2167D1;}
	.st3{fill:#3D84F3;}
	.st4{fill:#4CA853;}
	.st5{fill:#398039;}
	.st6{fill:#D74F3F;}
	.st7{fill:#D43C89;}
	.st8{fill:#B2005F;}
	.st9{fill:none;stroke:#000000;stroke-width:3;stroke-linecap:round;stroke-linejoin:round;stroke-miterlimit:10;}
	
		.st10{fill-rule:evenodd;clip-rule:evenodd;fill:none;stroke:#000000;stroke-width:3;stroke-linecap:round;stroke-linejoin:round;stroke-miterlimit:10;}
	
		.st11{fill-rule:evenodd;clip-rule:evenodd;fill:none;stroke:#040404;stroke-width:3;stroke-linecap:round;stroke-linejoin:round;stroke-miterlimit:10;}
	.st12{fill-rule:evenodd;clip-rule:evenodd;}
	.st13{fill-rule:evenodd;clip-rule:evenodd;fill:#040404;}
	.st14{fill:url(#SVGID_1_);}
	.st15{fill:url(#SVGID_2_);}
	.st16{fill:url(#SVGID_3_);}
	.st17{fill:url(#SVGID_4_);}
	.st18{fill:url(#SVGID_5_);}
	.st19{fill:url(#SVGID_6_);}
	.st20{fill:url(#SVGID_7_);}
	.st21{fill:url(#SVGID_8_);}
	.st22{fill:url(#SVGID_9_);}
	.st23{fill:url(#SVGID_10_);}
	.st24{fill:url(#SVGID_11_);}
	.st25{fill:url(#SVGID_12_);}
	.st26{fill:url(#SVGID_13_);}
	.st27{fill:url(#SVGID_14_);}
	.st28{fill:url(#SVGID_15_);}
	.st29{fill:url(#SVGID_16_);}
	.st30{fill:url(#SVGID_17_);}
	.st31{fill:url(#SVGID_18_);}
	.st32{fill:url(#SVGID_19_);}
	.st33{fill:url(#SVGID_20_);}
	.st34{fill:url(#SVGID_21_);}
	.st35{fill:url(#SVGID_22_);}
	.st36{fill:url(#SVGID_23_);}
	.st37{fill:url(#SVGID_24_);}
	.st38{fill:url(#SVGID_25_);}
	.st39{fill:url(#SVGID_26_);}
	.st40{fill:url(#SVGID_27_);}
	.st41{fill:url(#SVGID_28_);}
	.st42{fill:url(#SVGID_29_);}
	.st43{fill:url(#SVGID_30_);}
	.st44{fill:url(#SVGID_31_);}
	.st45{fill:url(#SVGID_32_);}
	.st46{fill:url(#SVGID_33_);}
	.st47{fill:url(#SVGID_34_);}
	.st48{fill:url(#SVGID_35_);}
	.st49{fill:url(#SVGID_36_);}
	.st50{fill:url(#SVGID_37_);}
	.st51{fill:url(#SVGID_38_);}
	.st52{fill:url(#SVGID_39_);}
	.st53{fill:url(#SVGID_40_);}
	.st54{fill:url(#SVGID_41_);}
	.st55{fill:url(#SVGID_42_);}
	.st56{fill:url(#SVGID_43_);}
	.st57{fill:url(#SVGID_44_);}
	.st58{fill:url(#SVGID_45_);}
	.st59{fill:#040404;}
	.st60{fill:url(#SVGID_46_);}
	.st61{fill:url(#SVGID_47_);}
	.st62{fill:url(#SVGID_48_);}
	.st63{fill:url(#SVGID_49_);}
	.st64{fill:url(#SVGID_50_);}
	.st65{fill:url(#SVGID_51_);}
	.st66{fill:url(#SVGID_52_);}
	.st67{fill:url(#SVGID_53_);}
	.st68{fill:url(#SVGID_54_);}
	.st69{fill:url(#SVGID_55_);}
	.st70{fill:url(#SVGID_56_);}
	.st71{fill:url(#SVGID_57_);}
	.st72{fill:url(#SVGID_58_);}
	.st73{fill:url(#SVGID_59_);}
	.st74{fill:url(#SVGID_60_);}
	.st75{fill:url(#SVGID_61_);}
	.st76{fill:url(#SVGID_62_);}
	.st77{fill:none;stroke:#000000;stroke-width:3;stroke-miterlimit:10;}
	.st78{fill:none;stroke:#FFFFFF;stroke-miterlimit:10;}
	.st79{fill:#4BC9FF;}
	.st80{fill:#5500DD;}
	.st81{fill:#FF3A00;}
	.st82{fill:#E6162D;}
	.st83{fill:#F1F1F1;}
	.st84{fill:#FF9933;}
	.st85{fill:#B92B27;}
	.st86{fill:#00ACED;}
	.st87{fill:#BD2125;}
	.st88{fill:#1877F2;}
	.st89{fill:#6665D2;}
	.st90{fill:#CE3056;}
	.st91{fill:#5BB381;}
	.st92{fill:#61C3EC;}
	.st93{fill:#E4B34B;}
	.st94{fill:#181EF2;}
	.st95{fill:#FF0000;}
	.st96{fill:#FE466C;}
	.st97{fill:#FA4778;}
	.st98{fill:#FF7700;}
	.st99{fill-rule:evenodd;clip-rule:evenodd;fill:#1F6BF6;}
	.st100{fill:#520094;}
	.st101{fill:#4477E8;}
	.st102{fill:#3D1D1C;}
	.st103{fill:#FFE812;}
	.st104{fill:#344356;}
	.st105{fill:#00CC76;}
	.st106{fill-rule:evenodd;clip-rule:evenodd;fill:#345E90;}
	.st107{fill:#1F65D8;}
	.st108{fill:#EB3587;}
	.st109{fill-rule:evenodd;clip-rule:evenodd;fill:#603A88;}
	.st110{fill:#E3CE99;}
	.st111{fill:#783AF9;}
	.st112{fill:#FF515E;}
	.st113{fill:#FF4906;}
	.st114{fill:#503227;}
	.st115{fill:#4C7BD9;}
	.st116{fill:#69C9D0;}
	.st117{fill:#1B92D1;}
	.st118{fill:#EB4F4A;}
	.st119{fill:#513728;}
	.st120{fill:#FF6600;}
	.st121{fill-rule:evenodd;clip-rule:evenodd;fill:#B61438;}
	.st122{fill:#FFFC00;}
	.st123{fill:#141414;}
	.st124{fill:#94D137;}
	.st125{fill-rule:evenodd;clip-rule:evenodd;fill:#F1F1F1;}
	.st126{fill-rule:evenodd;clip-rule:evenodd;fill:#66E066;}
	.st127{fill:#2D8CFF;}
	.st128{fill:#F1A300;}
	.st129{fill:#4BA2F2;}
	.st130{fill:#1A5099;}
	.st131{fill:#EE6060;}
	.st132{fill-rule:evenodd;clip-rule:evenodd;fill:#F48120;}
	.st133{fill:#222222;}
	.st134{fill:url(#SVGID_63_);}
	.st135{fill:#0077B5;}
	.st136{fill:#FFCC00;}
	.st137{fill:#EB3352;}
	.st138{fill:#F9D265;}
	.st139{fill:#F5B955;}
	.st140{fill:#DD2A7B;}
	.st141{fill:#66E066;}
	.st142{fill:#EB4E00;}
	.st143{fill:#FFC794;}
	.st144{fill:#B5332A;}
	.st145{fill:#4E85EB;}
	.st146{fill:#58A45C;}
	.st147{fill:#F2BC42;}
	.st148{fill:#D85040;}
	.st149{fill:#464EB8;}
	.st150{fill:#7B83EB;}
</style>
<g id="Layer_1"/>
<g id="Layer_2">
<g>
<path class="st7" d="M2.5,50c2.616,63.358,92.407,63.309,95,0C94.901-13.324,5.109-13.343,2.5,50z"/>
<g>
<path class="st8" d="M62.471,48.703c14.262-1.787,28.412,1.073,29.816,1.385c-0.067-10.143-3.699-19.46-9.649-26.765     c-0.914,1.229-8.089,10.456-23.911,16.935C60.088,43.005,61.327,45.857,62.471,48.703z"/>
<path class="st8" d="M78.38,18.624C70.826,11.877,60.887,7.788,49.99,7.788c-3.454,0.022-6.819,0.447-10.028,1.207     c1.181,1.586,8.958,12.221,15.978,25.134C71.182,28.41,77.622,19.719,78.38,18.624z"/>
<path class="st8" d="M48.325,36.727c-7.086-12.645-14.752-23.28-15.888-24.844C20.47,17.558,11.49,28.639,8.727,41.955     C10.643,41.977,28.292,42.044,48.325,36.727z"/>
<path class="st8" d="M53.322,50.338c0.553-0.178,1.106-0.355,1.681-0.51c-1.062-2.417-2.234-4.857-3.451-7.23     c-21.214,6.365-41.831,6.099-43.689,6.077c-0.378,11.28,3.842,21.983,10.906,29.786C19.742,76.797,31.4,57.435,53.322,50.338z"/>
<path class="st8" d="M57.36,56.938c-23.395,8.179-31.812,24.451-32.546,25.966c10.985,9.003,28.446,11.476,41.654,5.475     c-0.626-3.657-3.022-16.359-8.849-31.527C57.533,56.895,57.425,56.917,57.36,56.938z"/>
<path class="st8" d="M65.836,54.845c5.441,15.017,7.652,27.23,8.107,29.773c9.321-6.346,15.975-16.364,17.839-27.991     C90.351,56.17,78.885,52.758,65.836,54.845z"/>
</g>
</g>
</g>
</svg>